<svg xmlns="http://www.w3.org/2000/svg" width="48.024" height="48.024" viewBox="0 0 48.024 48.024">
  <g id="Gruppe_50" data-name="Gruppe 50" transform="translate(-1881 -45)">
    <path id="play-circle" d="M32.012,8A24.012,24.012,0,1,0,56.024,32.012,24.008,24.008,0,0,0,32.012,8Z" transform="translate(1873 37)" fill="#272727"/>
    <path id="volume-mute" d="M19.969,72.433l2.417-2.417a.352.352,0,0,0,0-.5l-.5-.5a.352.352,0,0,0-.5,0l-2.418,2.417-2.417-2.417a.352.352,0,0,0-.5,0l-.5.5a.352.352,0,0,0,0,.5l2.417,2.418L15.564,74.85a.352.352,0,0,0,0,.5l.5.5a.352.352,0,0,0,.5,0l2.418-2.417,2.417,2.417a.352.352,0,0,0,.5,0l.5-.5a.352.352,0,0,0,0-.5ZM10.182,64a1.03,1.03,0,0,0-.737.31L5.537,68.217H1.054A1.054,1.054,0,0,0,0,69.271V75.6A1.054,1.054,0,0,0,1.054,76.65H5.537l3.908,3.907a1.031,1.031,0,0,0,.737.31,1.052,1.052,0,0,0,1.062-1.055V65.055A1.052,1.052,0,0,0,10.182,64ZM9.839,78.963,6.53,75.656l-.412-.412H1.406V69.622H6.119l.412-.412L9.839,65.9Z" transform="translate(1894 -3)" fill="#fff"/>
  </g>
</svg>
