<svg xmlns="http://www.w3.org/2000/svg" width="48.024" height="48.024" viewBox="0 0 48.024 48.024">
  <g id="Gruppe_21" data-name="Gruppe 21" transform="translate(-1770 -309)">
    <path id="play-circle" d="M32.012,8A24.012,24.012,0,1,0,56.024,32.012,24.008,24.008,0,0,0,32.012,8Z" transform="translate(1762 301)" fill="#272727"/>
    <path id="volume-up" d="M14.672,8.282a.684.684,0,1,0-.591,1.234,1.626,1.626,0,0,1,.98,1.437,1.625,1.625,0,0,1-.98,1.437.684.684,0,1,0,.591,1.234,2.908,2.908,0,0,0,0-5.342ZM9.918,2.738a1,1,0,0,0-.718.3L5.394,6.845H1.027A1.027,1.027,0,0,0,0,7.872v6.161A1.027,1.027,0,0,0,1.027,15.06H5.394L9.2,18.866a1,1,0,0,0,.718.3,1.025,1.025,0,0,0,1.035-1.028V3.766A1.025,1.025,0,0,0,9.918,2.738ZM9.584,17.314,5.961,13.691H1.369V8.215H5.961L9.584,4.592ZM18.035.078a.685.685,0,1,0-.64,1.211,10.881,10.881,0,0,1,0,19.327.685.685,0,1,0,.64,1.211,12.25,12.25,0,0,0,0-21.749Zm2.5,10.875a7.735,7.735,0,0,0-3.8-6.755.7.7,0,0,0-.943.252.682.682,0,0,0,.255.935,6.366,6.366,0,0,1,3.107,5.567A6.366,6.366,0,0,1,16.05,16.52a.683.683,0,0,0-.255.935.7.7,0,0,0,.943.252A7.734,7.734,0,0,0,20.538,10.953Z" transform="translate(1781.355 322.088)" fill="#fff"/>
  </g>
</svg>
